<mxfile host="app.diagrams.net" agent="Mozilla/5.0 (Windows NT 10.0; Win64; x64) AppleWebKit/537.36 (KHTML, like Gecko) Chrome/133.0.0.0 Safari/537.36" version="26.1.0">
  <diagram name="Page-1" id="x7qLSKAQTFBL30Qf4_2A">
    <mxGraphModel dx="1720" dy="753" grid="1" gridSize="10" guides="1" tooltips="1" connect="1" arrows="1" fold="1" page="1" pageScale="1" pageWidth="850" pageHeight="1100" math="0" shadow="0">
      <root>
        <mxCell id="0" />
        <mxCell id="1" parent="0" />
        <mxCell id="2UtUZOJxcgOmFenS4ZwM-15" value="" style="edgeStyle=orthogonalEdgeStyle;rounded=0;orthogonalLoop=1;jettySize=auto;html=1;" edge="1" parent="1" source="2UtUZOJxcgOmFenS4ZwM-1" target="2UtUZOJxcgOmFenS4ZwM-3">
          <mxGeometry relative="1" as="geometry">
            <mxPoint x="135" y="210" as="targetPoint" />
          </mxGeometry>
        </mxCell>
        <mxCell id="2UtUZOJxcgOmFenS4ZwM-1" value="" style="sketch=0;pointerEvents=1;shadow=0;dashed=0;html=1;strokeColor=none;fillColor=#505050;labelPosition=center;verticalLabelPosition=bottom;verticalAlign=top;outlineConnect=0;align=center;shape=mxgraph.office.users.csv_file;" vertex="1" parent="1">
          <mxGeometry x="20" y="175" width="50" height="40" as="geometry" />
        </mxCell>
        <mxCell id="2UtUZOJxcgOmFenS4ZwM-27" value="" style="edgeStyle=orthogonalEdgeStyle;rounded=0;orthogonalLoop=1;jettySize=auto;html=1;" edge="1" parent="1" source="2UtUZOJxcgOmFenS4ZwM-3" target="2UtUZOJxcgOmFenS4ZwM-6">
          <mxGeometry relative="1" as="geometry" />
        </mxCell>
        <mxCell id="2UtUZOJxcgOmFenS4ZwM-30" value="" style="edgeStyle=orthogonalEdgeStyle;rounded=0;orthogonalLoop=1;jettySize=auto;html=1;" edge="1" parent="1" source="2UtUZOJxcgOmFenS4ZwM-6" target="2UtUZOJxcgOmFenS4ZwM-5">
          <mxGeometry relative="1" as="geometry" />
        </mxCell>
        <mxCell id="2UtUZOJxcgOmFenS4ZwM-6" value="" style="sketch=0;points=[[0,0,0],[0.25,0,0],[0.5,0,0],[0.75,0,0],[1,0,0],[0,1,0],[0.25,1,0],[0.5,1,0],[0.75,1,0],[1,1,0],[0,0.25,0],[0,0.5,0],[0,0.75,0],[1,0.25,0],[1,0.5,0],[1,0.75,0]];outlineConnect=0;fontColor=#232F3E;fillColor=#E7157B;strokeColor=#ffffff;dashed=0;verticalLabelPosition=bottom;verticalAlign=top;align=center;html=1;fontSize=12;fontStyle=0;aspect=fixed;shape=mxgraph.aws4.resourceIcon;resIcon=mxgraph.aws4.eventbridge;" vertex="1" parent="1">
          <mxGeometry x="182.45" y="280" width="60" height="60" as="geometry" />
        </mxCell>
        <mxCell id="2UtUZOJxcgOmFenS4ZwM-18" value="&amp;nbsp; &amp;nbsp; &amp;nbsp; &amp;nbsp; &amp;nbsp; AWS Step Functions workflow" style="points=[[0,0],[0.25,0],[0.5,0],[0.75,0],[1,0],[1,0.25],[1,0.5],[1,0.75],[1,1],[0.75,1],[0.5,1],[0.25,1],[0,1],[0,0.75],[0,0.5],[0,0.25]];outlineConnect=0;gradientColor=none;html=1;whiteSpace=wrap;fontSize=12;fontStyle=0;container=1;pointerEvents=0;collapsible=0;recursiveResize=0;shape=mxgraph.aws4.group;grIcon=mxgraph.aws4.group_aws_step_functions_workflow;strokeColor=#CD2264;fillColor=none;verticalAlign=top;align=left;spacingLeft=30;fontColor=#CD2264;dashed=0;" vertex="1" parent="1">
          <mxGeometry x="330" y="280" width="490" height="330" as="geometry" />
        </mxCell>
        <mxCell id="2UtUZOJxcgOmFenS4ZwM-5" value="" style="sketch=0;points=[[0,0,0],[0.25,0,0],[0.5,0,0],[0.75,0,0],[1,0,0],[0,1,0],[0.25,1,0],[0.5,1,0],[0.75,1,0],[1,1,0],[0,0.25,0],[0,0.5,0],[0,0.75,0],[1,0.25,0],[1,0.5,0],[1,0.75,0]];outlineConnect=0;fontColor=#232F3E;fillColor=#E7157B;strokeColor=#ffffff;dashed=0;verticalLabelPosition=bottom;verticalAlign=top;align=center;html=1;fontSize=12;fontStyle=0;aspect=fixed;shape=mxgraph.aws4.resourceIcon;resIcon=mxgraph.aws4.step_functions;" vertex="1" parent="2UtUZOJxcgOmFenS4ZwM-18">
          <mxGeometry width="60" height="60" as="geometry" />
        </mxCell>
        <mxCell id="2UtUZOJxcgOmFenS4ZwM-33" value="VPC" style="points=[[0,0],[0.25,0],[0.5,0],[0.75,0],[1,0],[1,0.25],[1,0.5],[1,0.75],[1,1],[0.75,1],[0.5,1],[0.25,1],[0,1],[0,0.75],[0,0.5],[0,0.25]];outlineConnect=0;gradientColor=none;html=1;whiteSpace=wrap;fontSize=12;fontStyle=0;container=1;pointerEvents=0;collapsible=0;recursiveResize=0;shape=mxgraph.aws4.group;grIcon=mxgraph.aws4.group_vpc2;strokeColor=#8C4FFF;fillColor=none;verticalAlign=top;align=left;spacingLeft=30;fontColor=#AAB7B8;dashed=0;" vertex="1" parent="1">
          <mxGeometry x="280" y="120" width="560" height="510" as="geometry" />
        </mxCell>
        <mxCell id="2UtUZOJxcgOmFenS4ZwM-57" value="&lt;h3&gt;&lt;b&gt;Trigger&lt;/b&gt;&lt;/h3&gt;" style="text;html=1;align=center;verticalAlign=middle;whiteSpace=wrap;rounded=0;fillColor=#f8cecc;strokeColor=#b85450;" vertex="1" parent="2UtUZOJxcgOmFenS4ZwM-33">
          <mxGeometry x="-35.1" y="153.75" width="75.1" height="30" as="geometry" />
        </mxCell>
        <mxCell id="2UtUZOJxcgOmFenS4ZwM-35" value="AWS Cloud" style="points=[[0,0],[0.25,0],[0.5,0],[0.75,0],[1,0],[1,0.25],[1,0.5],[1,0.75],[1,1],[0.75,1],[0.5,1],[0.25,1],[0,1],[0,0.75],[0,0.5],[0,0.25]];outlineConnect=0;gradientColor=none;html=1;whiteSpace=wrap;fontSize=12;fontStyle=0;container=1;pointerEvents=0;collapsible=0;recursiveResize=0;shape=mxgraph.aws4.group;grIcon=mxgraph.aws4.group_aws_cloud_alt;strokeColor=#232F3E;fillColor=none;verticalAlign=top;align=left;spacingLeft=30;fontColor=#232F3E;dashed=0;" vertex="1" parent="1">
          <mxGeometry x="120" y="60" width="750" height="590" as="geometry" />
        </mxCell>
        <mxCell id="2UtUZOJxcgOmFenS4ZwM-43" value="Amazon S3" style="text;html=1;align=center;verticalAlign=middle;whiteSpace=wrap;rounded=0;" vertex="1" parent="2UtUZOJxcgOmFenS4ZwM-35">
          <mxGeometry x="54.9" y="73.13" width="70" height="30" as="geometry" />
        </mxCell>
        <mxCell id="2UtUZOJxcgOmFenS4ZwM-44" value="EventBridge Rule" style="text;html=1;align=center;verticalAlign=middle;whiteSpace=wrap;rounded=0;" vertex="1" parent="2UtUZOJxcgOmFenS4ZwM-35">
          <mxGeometry x="64.9" y="280" width="60" height="30" as="geometry" />
        </mxCell>
        <mxCell id="2UtUZOJxcgOmFenS4ZwM-47" value="Redshift" style="text;html=1;align=center;verticalAlign=middle;whiteSpace=wrap;rounded=0;" vertex="1" parent="2UtUZOJxcgOmFenS4ZwM-35">
          <mxGeometry x="357.5" y="73.13" width="60" height="30" as="geometry" />
        </mxCell>
        <mxCell id="2UtUZOJxcgOmFenS4ZwM-45" value="Redshift Query Editor v2" style="text;html=1;align=center;verticalAlign=middle;whiteSpace=wrap;rounded=0;" vertex="1" parent="2UtUZOJxcgOmFenS4ZwM-35">
          <mxGeometry x="577.5" y="73.13" width="90" height="30" as="geometry" />
        </mxCell>
        <mxCell id="2UtUZOJxcgOmFenS4ZwM-54" value="AWS Glue Crawlers" style="text;html=1;align=center;verticalAlign=middle;whiteSpace=wrap;rounded=0;" vertex="1" parent="2UtUZOJxcgOmFenS4ZwM-35">
          <mxGeometry x="311.5" y="350" width="60" height="30" as="geometry" />
        </mxCell>
        <mxCell id="2UtUZOJxcgOmFenS4ZwM-52" value="ETL Glue Job" style="text;html=1;align=center;verticalAlign=middle;whiteSpace=wrap;rounded=0;" vertex="1" parent="2UtUZOJxcgOmFenS4ZwM-35">
          <mxGeometry x="417.5" y="350" width="70" height="30" as="geometry" />
        </mxCell>
        <mxCell id="2UtUZOJxcgOmFenS4ZwM-51" value="&lt;h6&gt;Failure Erorr&lt;/h6&gt;" style="text;html=1;align=center;verticalAlign=middle;whiteSpace=wrap;rounded=0;" vertex="1" parent="2UtUZOJxcgOmFenS4ZwM-35">
          <mxGeometry x="500" y="260" width="70" height="30" as="geometry" />
        </mxCell>
        <mxCell id="2UtUZOJxcgOmFenS4ZwM-55" value="&lt;h6&gt;Success email&lt;/h6&gt;" style="text;html=1;align=center;verticalAlign=middle;whiteSpace=wrap;rounded=0;" vertex="1" parent="2UtUZOJxcgOmFenS4ZwM-35">
          <mxGeometry x="500" y="310" width="67.5" height="30" as="geometry" />
        </mxCell>
        <mxCell id="2UtUZOJxcgOmFenS4ZwM-46" value="SNS" style="text;html=1;align=center;verticalAlign=middle;whiteSpace=wrap;rounded=0;" vertex="1" parent="2UtUZOJxcgOmFenS4ZwM-35">
          <mxGeometry x="600" y="240" width="60" height="30" as="geometry" />
        </mxCell>
        <mxCell id="2UtUZOJxcgOmFenS4ZwM-60" value="User" style="text;html=1;align=center;verticalAlign=middle;whiteSpace=wrap;rounded=0;" vertex="1" parent="2UtUZOJxcgOmFenS4ZwM-35">
          <mxGeometry x="640" y="490" width="60" height="30" as="geometry" />
        </mxCell>
        <mxCell id="2UtUZOJxcgOmFenS4ZwM-48" value="Airport_Dim&amp;nbsp;" style="text;html=1;align=center;verticalAlign=middle;whiteSpace=wrap;rounded=0;" vertex="1" parent="2UtUZOJxcgOmFenS4ZwM-35">
          <mxGeometry x="200" y="103.13" width="60" height="30" as="geometry" />
        </mxCell>
        <mxCell id="2UtUZOJxcgOmFenS4ZwM-56" value="Analyse" style="text;html=1;align=center;verticalAlign=middle;whiteSpace=wrap;rounded=0;" vertex="1" parent="2UtUZOJxcgOmFenS4ZwM-35">
          <mxGeometry x="470" y="103.13" width="60" height="30" as="geometry" />
        </mxCell>
        <mxCell id="2UtUZOJxcgOmFenS4ZwM-66" value="" style="edgeStyle=orthogonalEdgeStyle;rounded=0;orthogonalLoop=1;jettySize=auto;html=1;" edge="1" parent="2UtUZOJxcgOmFenS4ZwM-35" source="2UtUZOJxcgOmFenS4ZwM-8" target="2UtUZOJxcgOmFenS4ZwM-4">
          <mxGeometry relative="1" as="geometry">
            <mxPoint x="470" y="185" as="targetPoint" />
            <Array as="points">
              <mxPoint x="453" y="200" />
              <mxPoint x="388" y="200" />
            </Array>
          </mxGeometry>
        </mxCell>
        <mxCell id="2UtUZOJxcgOmFenS4ZwM-8" value="" style="sketch=0;points=[[0,0,0],[0.25,0,0],[0.5,0,0],[0.75,0,0],[1,0,0],[0,1,0],[0.25,1,0],[0.5,1,0],[0.75,1,0],[1,1,0],[0,0.25,0],[0,0.5,0],[0,0.75,0],[1,0.25,0],[1,0.5,0],[1,0.75,0]];outlineConnect=0;fontColor=#232F3E;fillColor=#8C4FFF;strokeColor=#ffffff;dashed=0;verticalLabelPosition=bottom;verticalAlign=top;align=center;html=1;fontSize=12;fontStyle=0;aspect=fixed;shape=mxgraph.aws4.resourceIcon;resIcon=mxgraph.aws4.glue;" vertex="1" parent="2UtUZOJxcgOmFenS4ZwM-35">
          <mxGeometry x="417.5" y="271" width="70" height="70" as="geometry" />
        </mxCell>
        <mxCell id="2UtUZOJxcgOmFenS4ZwM-7" value="" style="sketch=0;points=[[0,0,0],[0.25,0,0],[0.5,0,0],[0.75,0,0],[1,0,0],[0,1,0],[0.25,1,0],[0.5,1,0],[0.75,1,0],[1,1,0],[0,0.25,0],[0,0.5,0],[0,0.75,0],[1,0.25,0],[1,0.5,0],[1,0.75,0]];outlineConnect=0;fontColor=#232F3E;fillColor=#E7157B;strokeColor=#ffffff;dashed=0;verticalLabelPosition=bottom;verticalAlign=top;align=center;html=1;fontSize=12;fontStyle=0;aspect=fixed;shape=mxgraph.aws4.resourceIcon;resIcon=mxgraph.aws4.sns;" vertex="1" parent="2UtUZOJxcgOmFenS4ZwM-35">
          <mxGeometry x="592.5" y="266" width="75" height="75" as="geometry" />
        </mxCell>
        <mxCell id="2UtUZOJxcgOmFenS4ZwM-9" value="" style="sketch=0;outlineConnect=0;fontColor=#232F3E;gradientColor=none;fillColor=#8C4FFF;strokeColor=none;dashed=0;verticalLabelPosition=bottom;verticalAlign=top;align=center;html=1;fontSize=12;fontStyle=0;aspect=fixed;pointerEvents=1;shape=mxgraph.aws4.glue_crawlers;" vertex="1" parent="2UtUZOJxcgOmFenS4ZwM-35">
          <mxGeometry x="305" y="268.5" width="73" height="73" as="geometry" />
        </mxCell>
        <mxCell id="2UtUZOJxcgOmFenS4ZwM-32" value="" style="edgeStyle=orthogonalEdgeStyle;rounded=0;orthogonalLoop=1;jettySize=auto;html=1;" edge="1" parent="2UtUZOJxcgOmFenS4ZwM-35" source="2UtUZOJxcgOmFenS4ZwM-9" target="2UtUZOJxcgOmFenS4ZwM-8">
          <mxGeometry relative="1" as="geometry">
            <Array as="points">
              <mxPoint x="390" y="306" />
              <mxPoint x="390" y="306" />
            </Array>
          </mxGeometry>
        </mxCell>
        <mxCell id="2UtUZOJxcgOmFenS4ZwM-62" value="" style="edgeStyle=orthogonalEdgeStyle;html=1;endArrow=block;elbow=vertical;startArrow=none;endFill=1;strokeColor=#545B64;rounded=0;" edge="1" parent="2UtUZOJxcgOmFenS4ZwM-35" source="2UtUZOJxcgOmFenS4ZwM-8">
          <mxGeometry width="100" relative="1" as="geometry">
            <mxPoint x="510" y="280" as="sourcePoint" />
            <mxPoint x="592.5" y="280" as="targetPoint" />
            <Array as="points">
              <mxPoint x="570" y="280" />
              <mxPoint x="570" y="280" />
            </Array>
          </mxGeometry>
        </mxCell>
        <mxCell id="2UtUZOJxcgOmFenS4ZwM-4" value="" style="outlineConnect=0;dashed=0;verticalLabelPosition=bottom;verticalAlign=top;align=center;html=1;shape=mxgraph.aws3.redshift;fillColor=#2E73B8;gradientColor=none;" vertex="1" parent="2UtUZOJxcgOmFenS4ZwM-35">
          <mxGeometry x="350" y="98.11999999999999" width="75" height="73.75" as="geometry" />
        </mxCell>
        <mxCell id="2UtUZOJxcgOmFenS4ZwM-10" value="" style="sketch=0;outlineConnect=0;fontColor=#232F3E;gradientColor=none;fillColor=#8C4FFF;strokeColor=none;dashed=0;verticalLabelPosition=bottom;verticalAlign=top;align=center;html=1;fontSize=12;fontStyle=0;aspect=fixed;pointerEvents=1;shape=mxgraph.aws4.redshift_query_editor_v20_light;" vertex="1" parent="2UtUZOJxcgOmFenS4ZwM-35">
          <mxGeometry x="592.5" y="103.12" width="63.75" height="63.75" as="geometry" />
        </mxCell>
        <mxCell id="2UtUZOJxcgOmFenS4ZwM-29" value="" style="edgeStyle=orthogonalEdgeStyle;rounded=0;orthogonalLoop=1;jettySize=auto;html=1;" edge="1" parent="2UtUZOJxcgOmFenS4ZwM-35" source="2UtUZOJxcgOmFenS4ZwM-4" target="2UtUZOJxcgOmFenS4ZwM-10">
          <mxGeometry relative="1" as="geometry" />
        </mxCell>
        <mxCell id="2UtUZOJxcgOmFenS4ZwM-12" value="&amp;nbsp; &amp;nbsp; &amp;nbsp; &amp;nbsp; &amp;nbsp; &amp;nbsp; &amp;nbsp; &amp;nbsp;Email" style="sketch=0;outlineConnect=0;fontColor=#232F3E;gradientColor=none;strokeColor=#232F3E;fillColor=#ffffff;dashed=0;verticalLabelPosition=bottom;verticalAlign=top;align=center;html=1;fontSize=12;fontStyle=0;aspect=fixed;shape=mxgraph.aws4.resourceIcon;resIcon=mxgraph.aws4.email;" vertex="1" parent="2UtUZOJxcgOmFenS4ZwM-35">
          <mxGeometry x="600" y="370" width="60" height="60" as="geometry" />
        </mxCell>
        <mxCell id="2UtUZOJxcgOmFenS4ZwM-24" style="edgeStyle=orthogonalEdgeStyle;rounded=0;orthogonalLoop=1;jettySize=auto;html=1;exitX=0.5;exitY=1;exitDx=0;exitDy=0;exitPerimeter=0;" edge="1" parent="2UtUZOJxcgOmFenS4ZwM-35" source="2UtUZOJxcgOmFenS4ZwM-7" target="2UtUZOJxcgOmFenS4ZwM-12">
          <mxGeometry relative="1" as="geometry" />
        </mxCell>
        <mxCell id="2UtUZOJxcgOmFenS4ZwM-13" value="" style="points=[];aspect=fixed;html=1;align=center;shadow=0;dashed=0;fillColor=#FF6A00;strokeColor=none;shape=mxgraph.alibaba_cloud.user;" vertex="1" parent="2UtUZOJxcgOmFenS4ZwM-35">
          <mxGeometry x="605" y="480" width="50" height="50" as="geometry" />
        </mxCell>
        <mxCell id="2UtUZOJxcgOmFenS4ZwM-20" value="" style="edgeStyle=orthogonalEdgeStyle;rounded=0;orthogonalLoop=1;jettySize=auto;html=1;" edge="1" parent="2UtUZOJxcgOmFenS4ZwM-35" source="2UtUZOJxcgOmFenS4ZwM-12" target="2UtUZOJxcgOmFenS4ZwM-13">
          <mxGeometry relative="1" as="geometry" />
        </mxCell>
        <mxCell id="2UtUZOJxcgOmFenS4ZwM-67" value="" style="edgeStyle=orthogonalEdgeStyle;html=1;endArrow=block;elbow=vertical;startArrow=none;endFill=1;strokeColor=#545B64;rounded=0;" edge="1" parent="2UtUZOJxcgOmFenS4ZwM-35">
          <mxGeometry width="100" relative="1" as="geometry">
            <mxPoint x="487.5" y="330" as="sourcePoint" />
            <mxPoint x="592" y="330" as="targetPoint" />
            <Array as="points">
              <mxPoint x="569.5" y="330" />
              <mxPoint x="569.5" y="330" />
            </Array>
          </mxGeometry>
        </mxCell>
        <mxCell id="2UtUZOJxcgOmFenS4ZwM-3" value="" style="sketch=0;outlineConnect=0;fontColor=#232F3E;gradientColor=none;fillColor=#7AA116;strokeColor=none;dashed=0;verticalLabelPosition=bottom;verticalAlign=top;align=center;html=1;fontSize=12;fontStyle=0;aspect=fixed;pointerEvents=1;shape=mxgraph.aws4.bucket_with_objects;" vertex="1" parent="2UtUZOJxcgOmFenS4ZwM-35">
          <mxGeometry x="60" y="101.25" width="64.9" height="67.5" as="geometry" />
        </mxCell>
        <mxCell id="2UtUZOJxcgOmFenS4ZwM-26" value="" style="edgeStyle=orthogonalEdgeStyle;rounded=0;orthogonalLoop=1;jettySize=auto;html=1;entryX=0;entryY=0.5;entryDx=0;entryDy=0;entryPerimeter=0;" edge="1" parent="2UtUZOJxcgOmFenS4ZwM-35" source="2UtUZOJxcgOmFenS4ZwM-3" target="2UtUZOJxcgOmFenS4ZwM-4">
          <mxGeometry relative="1" as="geometry">
            <mxPoint x="237.3499999999999" y="140.0000000000001" as="targetPoint" />
          </mxGeometry>
        </mxCell>
        <mxCell id="2UtUZOJxcgOmFenS4ZwM-58" value="&lt;h6&gt;&lt;span style=&quot;font-weight: normal;&quot;&gt;on successful job run&lt;/span&gt;&lt;/h6&gt;" style="text;html=1;align=center;verticalAlign=middle;whiteSpace=wrap;rounded=0;rotation=270;" vertex="1" parent="2UtUZOJxcgOmFenS4ZwM-35">
          <mxGeometry x="440" y="235" width="55" height="20" as="geometry" />
        </mxCell>
        <mxCell id="2UtUZOJxcgOmFenS4ZwM-59" value="flight_fact" style="text;html=1;align=center;verticalAlign=middle;whiteSpace=wrap;rounded=0;" vertex="1" parent="2UtUZOJxcgOmFenS4ZwM-35">
          <mxGeometry x="390" y="171.87" width="60" height="30" as="geometry" />
        </mxCell>
        <mxCell id="2UtUZOJxcgOmFenS4ZwM-36" value="Flight Data" style="text;html=1;align=center;verticalAlign=middle;whiteSpace=wrap;rounded=0;" vertex="1" parent="1">
          <mxGeometry x="15" y="230" width="60" height="30" as="geometry" />
        </mxCell>
        <mxCell id="2UtUZOJxcgOmFenS4ZwM-31" value="" style="edgeStyle=orthogonalEdgeStyle;rounded=0;orthogonalLoop=1;jettySize=auto;html=1;" edge="1" parent="1" source="2UtUZOJxcgOmFenS4ZwM-5" target="2UtUZOJxcgOmFenS4ZwM-9">
          <mxGeometry relative="1" as="geometry">
            <Array as="points">
              <mxPoint x="398" y="310" />
              <mxPoint x="398" y="360" />
            </Array>
          </mxGeometry>
        </mxCell>
        <mxCell id="2UtUZOJxcgOmFenS4ZwM-69" value="&lt;a style=&quot;box-sizing: border-box; background: var(--control-transparent-bgColor-hover); display: flex; align-items: center; min-width: 3ch; line-height: var(--text-body-lineHeight-medium, 1.4285714286); border-radius: var(--borderRadius-medium); padding-inline: var(--control-medium-paddingInline-condensed, var(--base-size-8)); padding-block: var(--control-medium-paddingBlock, 6px); text-align: left; text-wrap-mode: wrap; text-decoration-line: none !important;&quot; class=&quot;AppHeader-context-item&quot; data-view-component=&quot;true&quot; aria-current=&quot;page&quot; href=&quot;https://github.com/Nryreddy/Skyways_Data_Ingestion&quot; data-analytics-event=&quot;{&amp;quot;category&amp;quot;:&amp;quot;SiteHeaderComponent&amp;quot;,&amp;quot;action&amp;quot;:&amp;quot;context_region_crumb&amp;quot;,&amp;quot;label&amp;quot;:&amp;quot;Skyways_Data_Ingestion&amp;quot;,&amp;quot;screen_size&amp;quot;:&amp;quot;full&amp;quot;}&quot;&gt;&lt;span style=&quot;box-sizing: border-box; display: inline-block; overflow: hidden; text-overflow: ellipsis; text-wrap-mode: nowrap;&quot; class=&quot;AppHeader-context-item-label&quot;&gt;&lt;font style=&quot;font-size: 18px;&quot; face=&quot;Comic Sans MS&quot;&gt;Skyways Data Pipeline&lt;/font&gt;&lt;/span&gt;&lt;/a&gt;" style="text;strokeColor=#82b366;fillColor=#d5e8d4;html=1;fontSize=24;fontStyle=1;verticalAlign=middle;align=center;" vertex="1" parent="1">
          <mxGeometry x="380" y="10" width="210" height="40" as="geometry" />
        </mxCell>
      </root>
    </mxGraphModel>
  </diagram>
</mxfile>
